<svg xmlns="http://www.w3.org/2000/svg" viewBox="-40 -690.4 2670.0 1140.4" width="2670.0" height="1140.4">
  <defs>
    <linearGradient id="wtc-grad-comp" x1="0" y1="0" x2="0" y2="1">
      <stop offset="0%" stop-color="#F8D42B"></stop>
      <stop offset="52%" stop-color="#EFCB16"></stop>
      <stop offset="100%" stop-color="#D6AB11"></stop>
    </linearGradient>
  </defs>
  <g transform="translate(7,9)">
    <path d="M0 184 L76 184 L118 300 L150 214 L182 300 L224 184 L300 184 L248 380 L190 380 L150 272 L110 380 L52 380 Z" fill-rule="evenodd" transform="translate(0, 39.1) rotate(-4 150 300)" fill="#124063" stroke="#124063" stroke-width="15" stroke-linejoin="round" stroke-linecap="round" paint-order="stroke fill"></path>
    <path d="M42 380 L42 206 L0 206 L0 184 L100 184 L100 274 L166 274 L166 206 L124 206 L124 184 L224 184 L224 380 L166 380 L166 320 L100 320 L100 380 L42 380 Z" fill-rule="evenodd" transform="translate(260, 17.6) rotate(3 112 300)" fill="#124063" stroke="#124063" stroke-width="15" stroke-linejoin="round" stroke-linecap="round" paint-order="stroke fill"></path>
    <path d="M76 380 L76 232 L4 232 L4 206 L0 206 L0 184 L200 184 L200 206 L196 206 L196 232 L128 232 L128 380 L76 380 Z" fill-rule="evenodd" transform="translate(546, 3.5) rotate(5 100 300)" fill="#124063" stroke="#124063" stroke-width="15" stroke-linejoin="round" stroke-linecap="round" paint-order="stroke fill"></path>
    <path d="M186 246 L186 232 Q186 184 106 184 Q22 184 22 246 Q22 294 96 308 L122 313 Q142 317 142 331 Q142 350 106 350 Q80 350 80 328 L80 320 L16 320 L16 332 Q16 380 108 380 Q198 380 198 318 Q198 270 124 256 L98 251 Q80 247 80 233 Q80 214 106 214 Q128 214 128 234 L128 246 Z" fill-rule="evenodd" transform="translate(786, 6.8) rotate(-3 105 300)" fill="#124063" stroke="#124063" stroke-width="15" stroke-linejoin="round" stroke-linecap="round" paint-order="stroke fill"></path>
    <path d="M146 296 L146 380 L96 380 L96 360 Q74 384 40 378 Q0 370 0 320 Q0 262 56 258 Q92 255 96 284 L96 296 ZM96 306 Q96 290 70 290 Q48 290 48 320 Q48 350 70 350 Q96 350 96 334 Z" fill-rule="evenodd" transform="translate(440, 20.7) rotate(-3 73 300)" fill="#124063" stroke="#124063" stroke-width="15" stroke-linejoin="round" stroke-linecap="round" paint-order="stroke fill"></path>
    <path d="M46 184 L82 196 L40 268 L6 254 Z" fill-rule="evenodd" transform="translate(716, 5.8) rotate(0 46 300)" fill="#124063" stroke="#124063" stroke-width="15" stroke-linejoin="round" stroke-linecap="round" paint-order="stroke fill"></path>
    <path d="M76 380 L76 232 L4 232 L4 206 L0 206 L0 184 L200 184 L200 206 L196 206 L196 232 L128 232 L128 380 L76 380 Z" fill-rule="evenodd" transform="translate(1042, -4.9) rotate(4 100 300)" fill="#124063" stroke="#124063" stroke-width="15" stroke-linejoin="round" stroke-linecap="round" paint-order="stroke fill"></path>
    <path d="M42 380 L42 206 L0 206 L0 184 L100 184 L100 274 L166 274 L166 206 L124 206 L124 184 L224 184 L224 380 L166 380 L166 320 L100 320 L100 380 L42 380 Z" fill-rule="evenodd" transform="translate(1200, 5.6) rotate(-3 112 300)" fill="#124063" stroke="#124063" stroke-width="15" stroke-linejoin="round" stroke-linecap="round" paint-order="stroke fill"></path>
    <path d="M76 380 L76 232 L4 232 L4 206 L0 206 L0 184 L200 184 L200 206 L196 206 L196 232 L128 232 L128 380 L76 380 Z" fill-rule="evenodd" transform="translate(1486, 11.4) rotate(-3 100 300)" fill="#124063" stroke="#124063" stroke-width="15" stroke-linejoin="round" stroke-linecap="round" paint-order="stroke fill"></path>
    <path d="M146 296 L146 380 L96 380 L96 360 Q74 384 40 378 Q0 370 0 320 Q0 262 56 258 Q92 255 96 284 L96 296 ZM96 306 Q96 290 70 290 Q48 290 48 320 Q48 350 70 350 Q96 350 96 334 Z" fill-rule="evenodd" transform="translate(1380, -0.6) rotate(4 73 300)" fill="#124063" stroke="#124063" stroke-width="15" stroke-linejoin="round" stroke-linecap="round" paint-order="stroke fill"></path>
    <path d="M214 206 L180 234 A56 56 0 1 0 176 330 L210 356 A114 106 0 1 1 214 206 Z" fill-rule="evenodd" transform="translate(1732, 20.2) rotate(-6 107 300)" fill="#124063" stroke="#124063" stroke-width="15" stroke-linejoin="round" stroke-linecap="round" paint-order="stroke fill"></path>
    <path d="M42 380 L42 206 L0 206 L0 184 L84 184 L150 184 Q206 184 206 242 Q206 290 164 306 L268 392 L186 392 L116 312 L100 312 L100 380 L42 380 ZM100 228 L144 228 Q164 228 164 250 Q164 272 144 272 L100 272 Z" fill-rule="evenodd" transform="translate(1978, 26.5) rotate(-2 134 300)" fill="#124063" stroke="#124063" stroke-width="15" stroke-linejoin="round" stroke-linecap="round" paint-order="stroke fill"></path>
    <path d="M146 296 L146 380 L96 380 L96 360 Q74 384 40 378 Q0 370 0 320 Q0 262 56 258 Q92 255 96 284 L96 296 ZM96 306 Q96 290 70 290 Q48 290 48 320 Q48 350 70 350 Q96 350 96 334 Z" fill-rule="evenodd" transform="translate(1892, 30.2) rotate(4 73 300)" fill="#124063" stroke="#124063" stroke-width="15" stroke-linejoin="round" stroke-linecap="round" paint-order="stroke fill"></path>
    <path d="M42 380 L42 206 L0 206 L0 184 L84 184 Q158 184 158 282 Q158 382 60 382 L42 382 ZM90 234 Q122 234 122 282 Q122 330 90 330 L88 330 L88 234 Z" fill-rule="evenodd" transform="translate(2206, 46.1) rotate(6 79 300)" fill="#124063" stroke="#124063" stroke-width="15" stroke-linejoin="round" stroke-linecap="round" paint-order="stroke fill"></path>
    <path d="M760 190 L802 193 L846 208 L858 218 L856 232 L853 266 L846 296 L820 316 L814 384 L781 384 L784 316 L792 298 L806 290 L830 270 L817 236 L786 234 L786 264 L754 266 L735 256 L731 214 Z" fill-rule="evenodd" transform="translate(1686.0, 40.0) scale(1)" fill="#124063" stroke="#124063" stroke-width="15" stroke-linejoin="round" stroke-linecap="round" paint-order="stroke fill"></path>
    <path d="M786 412 L822 414 L828 421 L826 450 L819 456 L787 453 L781 445 L783 418 Z" fill-rule="evenodd" transform="translate(1686.0, 40.0) scale(1)" fill="#124063" stroke="#124063" stroke-width="15" stroke-linejoin="round" stroke-linecap="round" paint-order="stroke fill"></path>
    <path d="M760 190 L802 193 L846 208 L858 218 L856 232 L853 266 L846 296 L820 316 L814 384 L781 384 L784 316 L792 298 L806 290 L830 270 L817 236 L786 234 L786 264 L754 266 L735 256 L731 214 Z" fill-rule="evenodd" transform="translate(-776.3, -1141.1) scale(2.53)" fill="#124063" stroke="#124063" stroke-width="15" stroke-linejoin="round" stroke-linecap="round" paint-order="stroke fill"></path>
    <path d="M786 412 L822 414 L828 421 L826 450 L819 456 L787 453 L781 445 L783 418 Z" fill-rule="evenodd" transform="translate(-776.3, -1141.1) scale(2.53)" fill="#124063" stroke="#124063" stroke-width="15" stroke-linejoin="round" stroke-linecap="round" paint-order="stroke fill"></path>
  </g>
  <path d="M0 184 L76 184 L118 300 L150 214 L182 300 L224 184 L300 184 L248 380 L190 380 L150 272 L110 380 L52 380 Z" fill-rule="evenodd" transform="translate(0, 39.1) rotate(-4 150 300)" fill="#1a659a" stroke="#1a659a" stroke-width="15" stroke-linejoin="round" stroke-linecap="round" paint-order="stroke fill"></path>
  <path d="M0 184 L76 184 L118 300 L150 214 L182 300 L224 184 L300 184 L248 380 L190 380 L150 272 L110 380 L52 380 Z" fill-rule="evenodd" transform="translate(0, 39.1) rotate(-4 150 300)" fill="url(#wtc-grad-comp)"></path>
  <path d="M42 380 L42 206 L0 206 L0 184 L100 184 L100 274 L166 274 L166 206 L124 206 L124 184 L224 184 L224 380 L166 380 L166 320 L100 320 L100 380 L42 380 Z" fill-rule="evenodd" transform="translate(260, 17.6) rotate(3 112 300)" fill="#1a659a" stroke="#1a659a" stroke-width="15" stroke-linejoin="round" stroke-linecap="round" paint-order="stroke fill"></path>
  <path d="M42 380 L42 206 L0 206 L0 184 L100 184 L100 274 L166 274 L166 206 L124 206 L124 184 L224 184 L224 380 L166 380 L166 320 L100 320 L100 380 L42 380 Z" fill-rule="evenodd" transform="translate(260, 17.6) rotate(3 112 300)" fill="url(#wtc-grad-comp)"></path>
  <path d="M76 380 L76 232 L4 232 L4 206 L0 206 L0 184 L200 184 L200 206 L196 206 L196 232 L128 232 L128 380 L76 380 Z" fill-rule="evenodd" transform="translate(546, 3.5) rotate(5 100 300)" fill="#1a659a" stroke="#1a659a" stroke-width="15" stroke-linejoin="round" stroke-linecap="round" paint-order="stroke fill"></path>
  <path d="M76 380 L76 232 L4 232 L4 206 L0 206 L0 184 L200 184 L200 206 L196 206 L196 232 L128 232 L128 380 L76 380 Z" fill-rule="evenodd" transform="translate(546, 3.5) rotate(5 100 300)" fill="url(#wtc-grad-comp)"></path>
  <path d="M186 246 L186 232 Q186 184 106 184 Q22 184 22 246 Q22 294 96 308 L122 313 Q142 317 142 331 Q142 350 106 350 Q80 350 80 328 L80 320 L16 320 L16 332 Q16 380 108 380 Q198 380 198 318 Q198 270 124 256 L98 251 Q80 247 80 233 Q80 214 106 214 Q128 214 128 234 L128 246 Z" fill-rule="evenodd" transform="translate(786, 6.8) rotate(-3 105 300)" fill="#1a659a" stroke="#1a659a" stroke-width="15" stroke-linejoin="round" stroke-linecap="round" paint-order="stroke fill"></path>
  <path d="M186 246 L186 232 Q186 184 106 184 Q22 184 22 246 Q22 294 96 308 L122 313 Q142 317 142 331 Q142 350 106 350 Q80 350 80 328 L80 320 L16 320 L16 332 Q16 380 108 380 Q198 380 198 318 Q198 270 124 256 L98 251 Q80 247 80 233 Q80 214 106 214 Q128 214 128 234 L128 246 Z" fill-rule="evenodd" transform="translate(786, 6.8) rotate(-3 105 300)" fill="url(#wtc-grad-comp)"></path>
  <path d="M146 296 L146 380 L96 380 L96 360 Q74 384 40 378 Q0 370 0 320 Q0 262 56 258 Q92 255 96 284 L96 296 ZM96 306 Q96 290 70 290 Q48 290 48 320 Q48 350 70 350 Q96 350 96 334 Z" fill-rule="evenodd" transform="translate(440, 20.7) rotate(-3 73 300)" fill="#1a659a" stroke="#1a659a" stroke-width="15" stroke-linejoin="round" stroke-linecap="round" paint-order="stroke fill"></path>
  <path d="M146 296 L146 380 L96 380 L96 360 Q74 384 40 378 Q0 370 0 320 Q0 262 56 258 Q92 255 96 284 L96 296 ZM96 306 Q96 290 70 290 Q48 290 48 320 Q48 350 70 350 Q96 350 96 334 Z" fill-rule="evenodd" transform="translate(440, 20.7) rotate(-3 73 300)" fill="url(#wtc-grad-comp)"></path>
  <path d="M46 184 L82 196 L40 268 L6 254 Z" fill-rule="evenodd" transform="translate(716, 5.8) rotate(0 46 300)" fill="#1a659a" stroke="#1a659a" stroke-width="15" stroke-linejoin="round" stroke-linecap="round" paint-order="stroke fill"></path>
  <path d="M46 184 L82 196 L40 268 L6 254 Z" fill-rule="evenodd" transform="translate(716, 5.8) rotate(0 46 300)" fill="url(#wtc-grad-comp)"></path>
  <path d="M76 380 L76 232 L4 232 L4 206 L0 206 L0 184 L200 184 L200 206 L196 206 L196 232 L128 232 L128 380 L76 380 Z" fill-rule="evenodd" transform="translate(1042, -4.9) rotate(4 100 300)" fill="#1a659a" stroke="#1a659a" stroke-width="15" stroke-linejoin="round" stroke-linecap="round" paint-order="stroke fill"></path>
  <path d="M76 380 L76 232 L4 232 L4 206 L0 206 L0 184 L200 184 L200 206 L196 206 L196 232 L128 232 L128 380 L76 380 Z" fill-rule="evenodd" transform="translate(1042, -4.9) rotate(4 100 300)" fill="url(#wtc-grad-comp)"></path>
  <path d="M42 380 L42 206 L0 206 L0 184 L100 184 L100 274 L166 274 L166 206 L124 206 L124 184 L224 184 L224 380 L166 380 L166 320 L100 320 L100 380 L42 380 Z" fill-rule="evenodd" transform="translate(1200, 5.6) rotate(-3 112 300)" fill="#1a659a" stroke="#1a659a" stroke-width="15" stroke-linejoin="round" stroke-linecap="round" paint-order="stroke fill"></path>
  <path d="M42 380 L42 206 L0 206 L0 184 L100 184 L100 274 L166 274 L166 206 L124 206 L124 184 L224 184 L224 380 L166 380 L166 320 L100 320 L100 380 L42 380 Z" fill-rule="evenodd" transform="translate(1200, 5.6) rotate(-3 112 300)" fill="url(#wtc-grad-comp)"></path>
  <path d="M76 380 L76 232 L4 232 L4 206 L0 206 L0 184 L200 184 L200 206 L196 206 L196 232 L128 232 L128 380 L76 380 Z" fill-rule="evenodd" transform="translate(1486, 11.4) rotate(-3 100 300)" fill="#1a659a" stroke="#1a659a" stroke-width="15" stroke-linejoin="round" stroke-linecap="round" paint-order="stroke fill"></path>
  <path d="M76 380 L76 232 L4 232 L4 206 L0 206 L0 184 L200 184 L200 206 L196 206 L196 232 L128 232 L128 380 L76 380 Z" fill-rule="evenodd" transform="translate(1486, 11.4) rotate(-3 100 300)" fill="url(#wtc-grad-comp)"></path>
  <path d="M146 296 L146 380 L96 380 L96 360 Q74 384 40 378 Q0 370 0 320 Q0 262 56 258 Q92 255 96 284 L96 296 ZM96 306 Q96 290 70 290 Q48 290 48 320 Q48 350 70 350 Q96 350 96 334 Z" fill-rule="evenodd" transform="translate(1380, -0.6) rotate(4 73 300)" fill="#1a659a" stroke="#1a659a" stroke-width="15" stroke-linejoin="round" stroke-linecap="round" paint-order="stroke fill"></path>
  <path d="M146 296 L146 380 L96 380 L96 360 Q74 384 40 378 Q0 370 0 320 Q0 262 56 258 Q92 255 96 284 L96 296 ZM96 306 Q96 290 70 290 Q48 290 48 320 Q48 350 70 350 Q96 350 96 334 Z" fill-rule="evenodd" transform="translate(1380, -0.6) rotate(4 73 300)" fill="url(#wtc-grad-comp)"></path>
  <path d="M214 206 L180 234 A56 56 0 1 0 176 330 L210 356 A114 106 0 1 1 214 206 Z" fill-rule="evenodd" transform="translate(1732, 20.2) rotate(-6 107 300)" fill="#1a659a" stroke="#1a659a" stroke-width="15" stroke-linejoin="round" stroke-linecap="round" paint-order="stroke fill"></path>
  <path d="M214 206 L180 234 A56 56 0 1 0 176 330 L210 356 A114 106 0 1 1 214 206 Z" fill-rule="evenodd" transform="translate(1732, 20.2) rotate(-6 107 300)" fill="url(#wtc-grad-comp)"></path>
  <path d="M42 380 L42 206 L0 206 L0 184 L84 184 L150 184 Q206 184 206 242 Q206 290 164 306 L268 392 L186 392 L116 312 L100 312 L100 380 L42 380 ZM100 228 L144 228 Q164 228 164 250 Q164 272 144 272 L100 272 Z" fill-rule="evenodd" transform="translate(1978, 26.5) rotate(-2 134 300)" fill="#1a659a" stroke="#1a659a" stroke-width="15" stroke-linejoin="round" stroke-linecap="round" paint-order="stroke fill"></path>
  <path d="M42 380 L42 206 L0 206 L0 184 L84 184 L150 184 Q206 184 206 242 Q206 290 164 306 L268 392 L186 392 L116 312 L100 312 L100 380 L42 380 ZM100 228 L144 228 Q164 228 164 250 Q164 272 144 272 L100 272 Z" fill-rule="evenodd" transform="translate(1978, 26.5) rotate(-2 134 300)" fill="url(#wtc-grad-comp)"></path>
  <path d="M146 296 L146 380 L96 380 L96 360 Q74 384 40 378 Q0 370 0 320 Q0 262 56 258 Q92 255 96 284 L96 296 ZM96 306 Q96 290 70 290 Q48 290 48 320 Q48 350 70 350 Q96 350 96 334 Z" fill-rule="evenodd" transform="translate(1892, 30.2) rotate(4 73 300)" fill="#1a659a" stroke="#1a659a" stroke-width="15" stroke-linejoin="round" stroke-linecap="round" paint-order="stroke fill"></path>
  <path d="M146 296 L146 380 L96 380 L96 360 Q74 384 40 378 Q0 370 0 320 Q0 262 56 258 Q92 255 96 284 L96 296 ZM96 306 Q96 290 70 290 Q48 290 48 320 Q48 350 70 350 Q96 350 96 334 Z" fill-rule="evenodd" transform="translate(1892, 30.2) rotate(4 73 300)" fill="url(#wtc-grad-comp)"></path>
  <path d="M42 380 L42 206 L0 206 L0 184 L84 184 Q158 184 158 282 Q158 382 60 382 L42 382 ZM90 234 Q122 234 122 282 Q122 330 90 330 L88 330 L88 234 Z" fill-rule="evenodd" transform="translate(2206, 46.1) rotate(6 79 300)" fill="#1a659a" stroke="#1a659a" stroke-width="15" stroke-linejoin="round" stroke-linecap="round" paint-order="stroke fill"></path>
  <path d="M42 380 L42 206 L0 206 L0 184 L84 184 Q158 184 158 282 Q158 382 60 382 L42 382 ZM90 234 Q122 234 122 282 Q122 330 90 330 L88 330 L88 234 Z" fill-rule="evenodd" transform="translate(2206, 46.1) rotate(6 79 300)" fill="url(#wtc-grad-comp)"></path>
  <path d="M760 190 L802 193 L846 208 L858 218 L856 232 L853 266 L846 296 L820 316 L814 384 L781 384 L784 316 L792 298 L806 290 L830 270 L817 236 L786 234 L786 264 L754 266 L735 256 L731 214 Z" fill-rule="evenodd" transform="translate(1686.0, 40.0) scale(1)" fill="#1a659a" stroke="#1a659a" stroke-width="15" stroke-linejoin="round" stroke-linecap="round" paint-order="stroke fill"></path>
  <path d="M760 190 L802 193 L846 208 L858 218 L856 232 L853 266 L846 296 L820 316 L814 384 L781 384 L784 316 L792 298 L806 290 L830 270 L817 236 L786 234 L786 264 L754 266 L735 256 L731 214 Z" fill-rule="evenodd" transform="translate(1686.0, 40.0) scale(1)" fill="url(#wtc-grad-comp)"></path>
  <path d="M786 412 L822 414 L828 421 L826 450 L819 456 L787 453 L781 445 L783 418 Z" fill-rule="evenodd" transform="translate(1686.0, 40.0) scale(1)" fill="#1a659a" stroke="#1a659a" stroke-width="15" stroke-linejoin="round" stroke-linecap="round" paint-order="stroke fill"></path>
  <path d="M786 412 L822 414 L828 421 L826 450 L819 456 L787 453 L781 445 L783 418 Z" fill-rule="evenodd" transform="translate(1686.0, 40.0) scale(1)" fill="url(#wtc-grad-comp)"></path>
  <path d="M760 190 L802 193 L846 208 L858 218 L856 232 L853 266 L846 296 L820 316 L814 384 L781 384 L784 316 L792 298 L806 290 L830 270 L817 236 L786 234 L786 264 L754 266 L735 256 L731 214 Z" fill-rule="evenodd" transform="translate(-776.3, -1141.1) scale(2.53)" fill="#1a659a" stroke="#1a659a" stroke-width="15" stroke-linejoin="round" stroke-linecap="round" paint-order="stroke fill"></path>
  <path d="M760 190 L802 193 L846 208 L858 218 L856 232 L853 266 L846 296 L820 316 L814 384 L781 384 L784 316 L792 298 L806 290 L830 270 L817 236 L786 234 L786 264 L754 266 L735 256 L731 214 Z" fill-rule="evenodd" transform="translate(-776.3, -1141.1) scale(2.53)" fill="url(#wtc-grad-comp)"></path>
  <path d="M786 412 L822 414 L828 421 L826 450 L819 456 L787 453 L781 445 L783 418 Z" fill-rule="evenodd" transform="translate(-776.3, -1141.1) scale(2.53)" fill="#1a659a" stroke="#1a659a" stroke-width="15" stroke-linejoin="round" stroke-linecap="round" paint-order="stroke fill"></path>
  <path d="M786 412 L822 414 L828 421 L826 450 L819 456 L787 453 L781 445 L783 418 Z" fill-rule="evenodd" transform="translate(-776.3, -1141.1) scale(2.53)" fill="url(#wtc-grad-comp)"></path>
</svg>
